<?xml version="1.0"?>
<!DOCTYPE svg PUBLIC "-//W3C//DTD SVG 1.1//EN" "http://www.w3.org/Graphics/SVG/1.1/DTD/svg11.dtd">
<svg xmlns="http://www.w3.org/2000/svg" xmlns:xl="http://www.w3.org/1999/xlink" version="1.1" viewBox="-12 21 222 187" width="222pt" height="187pt"><metadata xmlns:dc="http://purl.org/dc/elements/1.1/"><dc:date>2017-04-20 06:50Z</dc:date><!-- Produced by OmniGraffle Professional 5.4.4 --></metadata><defs><linearGradient x1="0" x2="1" id="Gradient" gradientUnits="userSpaceOnUse"><stop offset="0" stop-color="#999"/><stop offset="1" stop-color="#666"/></linearGradient><linearGradient id="Obj_Gradient" xl:href="#Gradient" gradientTransform="translate(99.212597 28.346457) rotate(90) scale(164.40945)"/><linearGradient x1="0" x2="1" id="Gradient_2" gradientUnits="userSpaceOnUse"><stop offset="0" stop-color="#333"/><stop offset="1" stop-color="black"/></linearGradient><linearGradient id="Obj_Gradient_2" xl:href="#Gradient_2" gradientTransform="translate(90.70866 39.68504) rotate(90) scale(141.732285)"/><linearGradient x1="0" x2="1" id="Gradient_3" gradientUnits="userSpaceOnUse"><stop offset="0" stop-color="black"/><stop offset="1" stop-color="#333"/></linearGradient><linearGradient id="Obj_Gradient_3" xl:href="#Gradient_3" gradientTransform="translate(188.50394 39.68504) rotate(90) scale(39.68504)"/><filter id="Shadow" filterUnits="userSpaceOnUse"><feGaussianBlur in="SourceAlpha" result="blur" stdDeviation="3.488"/><feOffset in="blur" result="offset" dx="0" dy="4"/><feFlood flood-color="black" flood-opacity=".75" result="flood"/><feComposite in="flood" in2="offset" operator="in" result="color"/><feMerge><feMergeNode in="color"/><feMergeNode in="SourceGraphic"/></feMerge></filter><linearGradient x1="0" x2="1" id="Gradient_4" gradientUnits="userSpaceOnUse"><stop offset="0" stop-color="red" stop-opacity=".5"/><stop offset="1" stop-color="#6f6" stop-opacity=".5"/></linearGradient><linearGradient id="Obj_Gradient_4" xl:href="#Gradient_4" gradientTransform="translate(155.38713 124.79039) rotate(-170) scale(131.35248)"/></defs><g stroke="none" stroke-opacity="1" stroke-dasharray="none" fill="none" fill-opacity="1"><title>Canvas 1</title><g><title>Layer 2</title><path d="M 2.9999962 28.346457 L 195.4252 28.346457 C 197.08205 28.346457 198.4252 29.689603 198.4252 31.346457 L 198.4252 189.75591 C 198.4252 191.41277 197.08205 192.75591 195.4252 192.75591 L 2.9999962 192.75591 C 1.3431419 192.75591 -38146973e-13 191.41277 -38146973e-13 189.75591 L -38146973e-13 31.346457 C -38146973e-13 29.689603 1.3431419 28.346457 2.9999962 28.346457 Z" fill="url(#Obj_Gradient)"/><path d="M 2.9999962 28.346457 L 195.4252 28.346457 C 197.08205 28.346457 198.4252 29.689603 198.4252 31.346457 L 198.4252 189.75591 C 198.4252 191.41277 197.08205 192.75591 195.4252 192.75591 L 2.9999962 192.75591 C 1.3431419 192.75591 -38146973e-13 191.41277 -38146973e-13 189.75591 L -38146973e-13 31.346457 C -38146973e-13 29.689603 1.3431419 28.346457 2.9999962 28.346457 Z" stroke="black" stroke-linecap="round" stroke-linejoin="round" stroke-width="1"/><path d="M 35.149607 39.68504 L 146.26772 39.68504 C 159.4114 39.68504 170.07874 71.433072 170.07874 110.55118 C 170.07874 149.66929 159.4114 181.41733 146.26772 181.41733 L 35.149607 181.41733 C 22.005922 181.41733 11.338583 149.66929 11.338583 110.55118 C 11.338583 71.433072 22.005922 39.68504 35.149607 39.68504" fill="url(#Obj_Gradient_2)"/><path d="M 35.149607 39.68504 L 146.26772 39.68504 C 159.4114 39.68504 170.07874 71.433072 170.07874 110.55118 C 170.07874 149.66929 159.4114 181.41733 146.26772 181.41733 L 35.149607 181.41733 C 22.005922 181.41733 11.338583 149.66929 11.338583 110.55118 C 11.338583 71.433072 22.005922 39.68504 35.149607 39.68504" stroke="black" stroke-linecap="round" stroke-linejoin="round" stroke-width="1"/><path d="M 181.41733 42.519686 L 184.25197 39.68504 L 192.75591 39.68504 L 195.59056 42.519686 L 195.59056 76.535434 L 192.75591 79.37008 L 184.25197 79.37008 L 181.41733 76.535434 Z" fill="url(#Obj_Gradient_3)"/><path d="M 181.41733 42.519686 L 184.25197 39.68504 L 192.75591 39.68504 L 195.59056 42.519686 L 195.59056 76.535434 L 192.75591 79.37008 L 184.25197 79.37008 L 181.41733 76.535434 Z" stroke="#999" stroke-linecap="round" stroke-linejoin="round" stroke-width="1"/><circle cx="188.50394" cy="46.771655" r="4.251975" fill="red"/><circle cx="188.50394" cy="46.771655" r="4.251975" stroke="#999" stroke-linecap="round" stroke-linejoin="round" stroke-width="1"/><circle cx="188.50394" cy="58.110238" r="4.251975" fill="#ff8000"/><circle cx="188.50394" cy="58.110238" r="4.251975" stroke="#999" stroke-linecap="round" stroke-linejoin="round" stroke-width="1"/><circle cx="188.50394" cy="69.44882" r="4.251975" fill="green"/><circle cx="188.50394" cy="69.44882" r="4.251975" stroke="#999" stroke-linecap="round" stroke-linejoin="round" stroke-width="1"/></g><g><title>Laag 1</title><g filter="url(#Shadow)"><path d="M 90.70866 85.03937 C 75.98211 49.827403 34.236851 57.91068 34.015749 98.659277 C 33.794647 121.58022 53.94671 129.66236 67.234394 138.7423 C 80.07874 147.49002 89.37978 159.44882 90.70866 164.32101 C 92.037544 159.44882 102.224127 147.04781 114.18293 138.300096 C 127.24951 128.666836 147.62268 120.91578 147.401575 98.659277 C 147.18047 57.578458 104.66079 51.0463 90.70866 85.03937 Z" fill="url(#Obj_Gradient_4)"/></g></g><g><title>Beat</title><path d="M 17.007874 107.71654 L 45.354332 107.71654 L 51.023623 96.377955 L 56.692914 107.71654 L 73.70079 56.692915 L 96.377954 164.40945 L 119.05512 107.71654 L 124.72441 119.05512 L 130.3937 107.71654 L 170.07874 107.71654" stroke="green" stroke-linecap="round" stroke-linejoin="round" stroke-width="5"/></g></g></svg>
