<?xml version="1.0"?>
<!DOCTYPE svg PUBLIC "-//W3C//DTD SVG 1.1//EN" "http://www.w3.org/Graphics/SVG/1.1/DTD/svg11.dtd">
<svg xmlns="http://www.w3.org/2000/svg" xmlns:xl="http://www.w3.org/1999/xlink" version="1.1" viewBox="-6 11 239 201" width="239pt" height="201pt"><metadata xmlns:dc="http://purl.org/dc/elements/1.1/"><dc:date>2016-07-08 08:00Z</dc:date><!-- Produced by OmniGraffle Professional 5.4.4 --></metadata><defs><filter id="Shadow" filterUnits="userSpaceOnUse"><feGaussianBlur in="SourceAlpha" result="blur" stdDeviation="3.488"/><feOffset in="blur" result="offset" dx="0" dy="4"/><feFlood flood-color="black" flood-opacity=".75" result="flood"/><feComposite in="flood" in2="offset" operator="in" result="color"/><feMerge><feMergeNode in="color"/><feMergeNode in="SourceGraphic"/></feMerge></filter><linearGradient x1="0" x2="1" id="Gradient" gradientUnits="userSpaceOnUse"><stop offset="0" stop-color="red"/><stop offset="1" stop-color="#6f6"/></linearGradient><linearGradient id="Obj_Gradient" xl:href="#Gradient" gradientTransform="translate(210.40355 130.49267) rotate(-170) scale(197.02874)"/></defs><g stroke="none" stroke-opacity="1" stroke-dasharray="none" fill="none" fill-opacity="1"><title>Canvas 1</title><g><title>Laag 1</title><g filter="url(#Shadow)"><path d="M 113.38583 70.866145 C 91.296005 18.048189 28.678111 30.173103 28.346457 91.296005 C 28.014804 125.677424 58.2429 137.80064 78.17443 151.42054 C 97.44095 164.54212 111.39251 182.48033 113.38583 189.78861 C 115.379156 182.48033 130.65903 163.87881 148.59724 150.75724 C 168.19711 136.30735 198.75686 124.68076 198.42521 91.296005 C 198.09355 29.674773 134.31402 19.876536 113.38583 70.866145 Z" fill="url(#Obj_Gradient)"/></g></g><g><title>Beat</title><path d="M 0 98.64567 L 45.35433 98.64567 L 54.425195 80.503935 L 63.49606 98.64567 L 90.70866 17.007874 L 126.99212 189.35433 L 163.27559 98.64567 L 172.34645 116.7874 L 181.41732 98.64567 L 226.77165 98.64567" stroke="#8000ff" stroke-linecap="round" stroke-linejoin="round" stroke-width="5"/><g filter="url(#Shadow)"><path d="M 97.322835 90.708665 L 130.393704 110.551185 L 97.322835 130.393704 Z" fill="#ff8000"/><path d="M 97.322835 90.708665 L 130.393704 110.551185 L 97.322835 130.393704 Z" stroke="#ff8000" stroke-linecap="round" stroke-linejoin="round" stroke-width="1"/></g></g></g></svg>
