<?xml version="1.0"?>
<!DOCTYPE svg PUBLIC "-//W3C//DTD SVG 1.1//EN" "http://www.w3.org/Graphics/SVG/1.1/DTD/svg11.dtd">
<svg xmlns="http://www.w3.org/2000/svg" xmlns:xl="http://www.w3.org/1999/xlink" version="1.1" viewBox="17 21 193 193" width="193pt" height="193pt"><metadata xmlns:dc="http://purl.org/dc/elements/1.1/"><dc:date>2016-06-20 19:10Z</dc:date><!-- Produced by OmniGraffle Professional 5.4.4 --></metadata><defs><filter id="Shadow" filterUnits="userSpaceOnUse"><feGaussianBlur in="SourceAlpha" result="blur" stdDeviation="3.488"/><feOffset in="blur" result="offset" dx="0" dy="4"/><feFlood flood-color="black" flood-opacity=".75" result="flood"/><feComposite in="flood" in2="offset" operator="in" result="color"/><feMerge><feMergeNode in="color"/><feMergeNode in="SourceGraphic"/></feMerge></filter><radialGradient cx="0" cy="0" r="1" id="Gradient" gradientUnits="userSpaceOnUse"><stop offset="0" stop-color="red"/><stop offset="1" stop-color="#ff8000"/></radialGradient><radialGradient id="Obj_Gradient" xl:href="#Gradient" gradientTransform="translate(113.38583 113.38583) scale(120.26384)"/><linearGradient x1="0" x2="1" id="Gradient_2" gradientUnits="userSpaceOnUse"><stop offset="0" stop-color="black"/><stop offset="1" stop-color="#333"/></linearGradient><linearGradient id="Obj_Gradient_2" xl:href="#Gradient_2" gradientTransform="translate(132.16101 75.053024) rotate(105) scale(79.37008)"/></defs><g stroke="none" stroke-opacity="1" stroke-dasharray="none" fill="none" fill-opacity="1"><title>Canvas 1</title><g><title>Laag 1</title><g filter="url(#Shadow)"><path d="M 113.38583 70.866145 C 91.296005 18.048189 28.678111 30.173103 28.346457 91.296005 C 28.014804 125.677424 58.2429 137.80064 78.17443 151.42054 C 97.44095 164.54212 111.39251 182.48033 113.38583 189.78861 C 115.379156 182.48033 130.65903 163.87881 148.59724 150.75724 C 168.19711 136.30735 198.75686 124.68076 198.42521 91.296005 C 198.09355 29.674773 134.31402 19.876536 113.38583 70.866145 Z" fill="url(#Obj_Gradient)"/><path d="M 113.38583 70.866145 C 91.296005 18.048189 28.678111 30.173103 28.346457 91.296005 C 28.014804 125.677424 58.2429 137.80064 78.17443 151.42054 C 97.44095 164.54212 111.39251 182.48033 113.38583 189.78861 C 115.379156 182.48033 130.65903 163.87881 148.59724 150.75724 C 168.19711 136.30735 198.75686 124.68076 198.42521 91.296005 C 198.09355 29.674773 134.31402 19.876536 113.38583 70.866145 Z" stroke="#ff8000" stroke-linecap="round" stroke-linejoin="round" stroke-width="1"/></g><g filter="url(#Shadow)"><path d="M 57.637794 68.0315 L 90.708664 87.87402 L 57.637794 107.71654 Z" fill="#ff8000"/><path d="M 57.637794 68.0315 L 90.708664 87.87402 L 57.637794 107.71654 Z" stroke="#ff8000" stroke-linecap="round" stroke-linejoin="round" stroke-width="1"/></g><g filter="url(#Shadow)"><path d="M 117.0034 76.86084 L 123.94684 72.852044 L 140.37518 77.254005 L 144.38398 84.19744 L 126.77613 149.91082 L 119.832695 153.91961 L 103.40435 149.51765 L 99.395556 142.57422 Z" fill="url(#Obj_Gradient_2)"/><path d="M 117.0034 76.86084 L 123.94684 72.852044 L 140.37518 77.254005 L 144.38398 84.19744 L 126.77613 149.91082 L 119.832695 153.91961 L 103.40435 149.51765 L 99.395556 142.57422 Z" stroke="#999" stroke-linecap="round" stroke-linejoin="round" stroke-width="1"/></g><g filter="url(#Shadow)"><circle cx="128.49271" cy="88.74331" r="8.50395" fill="red"/><circle cx="128.49271" cy="88.74331" r="8.50395" stroke="#999" stroke-linecap="round" stroke-linejoin="round" stroke-width="1"/></g><g filter="url(#Shadow)"><circle cx="122.62343" cy="110.64777" r="8.50395" fill="#ff8000"/><circle cx="122.62343" cy="110.64777" r="8.50395" stroke="#999" stroke-linecap="round" stroke-linejoin="round" stroke-width="1"/></g><g filter="url(#Shadow)"><circle cx="116.754144" cy="132.55223" r="8.50395" fill="green"/><circle cx="116.754144" cy="132.55223" r="8.50395" stroke="#999" stroke-linecap="round" stroke-linejoin="round" stroke-width="1"/></g></g></g></svg>
